<svg width="22" height="23" viewBox="0 0 22 23" fill="none" xmlns="http://www.w3.org/2000/svg">
<path fill-rule="evenodd" clip-rule="evenodd" d="M19 0.5C20.6569 0.5 22 1.84315 22 3.5V19.5C22 21.1569 20.6569 22.5 19 22.5H3C1.34315 22.5 0 21.1569 0 19.5V3.5C0 1.84315 1.34315 0.5 3 0.5H19ZM19 2.5C19.5523 2.5 20 2.94772 20 3.5V19.5C20 20.0523 19.5523 20.5 19 20.5H14V13.4999H16.0762C16.5066 13.4999 16.8887 13.2245 17.0249 12.8161L17.4679 11.4871C17.6298 11.0014 17.2683 10.4999 16.7564 10.4999H14V8.49992C14 7.99992 14.5 7.49992 15 7.49992H17C17.5523 7.49992 18 7.0522 18 6.49992V5.81393C18 5.49091 17.7937 5.2013 17.4813 5.11887C16.1705 4.77295 15 4.77295 15 4.77295C12.5 4.77295 11 6.49992 11 7.99992V10.4999H9C8.44772 10.4999 8 10.9476 8 11.4999V12.4999C8 13.0522 8.44771 13.4999 9 13.4999H11V20.5H3C2.44772 20.5 2 20.0523 2 19.5V3.5C2 2.94772 2.44772 2.5 3 2.5H19Z" fill="#0F0F0F"/>
</svg>
