<svg width="22" height="19" viewBox="0 0 22 19" fill="none" xmlns="http://www.w3.org/2000/svg">
<path fill-rule="evenodd" clip-rule="evenodd" d="M18.7829 1.41849C19.1314 1.3359 19.3744 1.25469 19.5735 1.16939C19.8525 1.04985 20.0839 0.906651 20.4493 0.665481C20.7564 0.462801 21.15 0.445151 21.474 0.619531C21.798 0.793911 22.0001 1.13214 22.0001 1.5001C22.0001 2.58104 21.8655 3.46697 21.5536 4.24665C21.2912 4.90245 20.9227 5.43511 20.4818 5.91992C20.2955 9.2831 19.322 11.9241 17.8337 13.9251C16.2912 15.999 14.2387 17.3271 12.0752 18.0708C9.91796 18.8123 7.6387 18.978 5.59678 18.727C3.56824 18.4776 1.69312 17.806 0.386131 16.7894C0.0282006 16.511 -0.0976114 16.0267 0.0795906 15.6093C0.256781 15.1919 0.692641 14.946 1.14152 15.0101C2.42748 15.1939 3.66538 14.9015 4.68327 14.4834C4.48289 14.3744 4.29396 14.2564 4.11836 14.1349C3.19082 13.4927 2.44248 12.621 2.10564 11.9474C1.96626 11.6686 1.96482 11.3408 2.10175 11.0608C2.17239 10.9164 2.27569 10.7932 2.40111 10.6994C1.04685 9.5817 0.500071 8.0358 0.500071 7.0001C0.500071 6.69216 0.641941 6.4014 0.884671 6.21189C0.986721 6.13221 1.10182 6.07417 1.22316 6.03921C1.12182 5.74246 1.04318 5.44266 0.983231 5.15241C0.717471 3.86554 0.741061 2.41308 1.02992 1.25757C1.12877 0.862161 1.45772 0.566301 1.86136 0.509771C2.26501 0.453231 2.66257 0.647341 2.86625 1.00038C3.94376 2.86806 5.93123 4.00968 7.78094 4.68592C8.65057 5.00386 9.45606 5.20646 10.0597 5.33103C10.19 4.11043 10.5309 3.10384 11.0539 2.30435C11.744 1.24956 12.7065 0.625491 13.7402 0.347221C15.5228 -0.132679 17.5009 0.414071 18.7829 1.41849ZM9.74846 7.3087C9.06336 7.1711 8.12179 6.94001 7.0942 6.56432C5.73698 6.06813 4.16096 5.29442 2.84079 4.09595C2.86442 4.3165 2.89797 4.53516 2.9419 4.7479C3.16315 5.81924 3.57427 6.41923 3.94728 6.60574C4.40349 6.83384 4.61492 7.3687 4.43795 7.8471C4.19835 8.4948 3.56817 8.548 2.99558 8.4048C3.45611 9.0953 4.28385 9.7837 5.66447 10.0138C6.14065 10.0931 6.49215 10.5014 6.49994 10.984C6.50772 11.4667 6.16956 11.8861 5.69618 11.9807L4.82572 12.1548C4.95888 12.2706 5.10307 12.3841 5.25678 12.4905C5.95369 12.973 6.65344 13.181 7.25753 13.03C7.70998 12.9169 8.18054 13.1316 8.3917 13.5474C8.60286 13.9632 8.49853 14.4698 8.14025 14.7684C7.49633 15.3044 6.74432 15.7344 5.99065 16.0914C5.63683 16.259 5.24142 16.4244 4.81197 16.57C5.14226 16.6404 5.48593 16.6983 5.84086 16.7419C7.61143 16.9596 9.58216 16.8129 11.425 16.1794C13.2615 15.5482 14.9591 14.4388 16.229 12.7315C17.4972 11.0265 18.3821 8.6669 18.5008 5.46315C18.5101 5.21091 18.6145 4.97154 18.793 4.79306C19.2427 4.34341 19.6142 3.82802 19.797 3.21455C19.4771 3.31427 19.1169 3.40059 18.6879 3.48261C18.3624 3.54483 18.0273 3.44181 17.793 3.20751C17.0285 2.44299 15.5165 1.94023 14.2601 2.27846C13.6687 2.43765 13.1312 2.78228 12.7276 3.3993C12.3154 4.02928 12.0001 5.01069 12.0001 6.50015C12.0001 6.78312 11.8802 7.0528 11.6702 7.2425C11.1722 7.692 10.3341 7.4263 9.74846 7.3087Z" fill="#0F0F0F"/>
</svg>
