<svg width="20" height="22" viewBox="0 0 20 22" fill="none" xmlns="http://www.w3.org/2000/svg">
<path fill-rule="evenodd" clip-rule="evenodd" d="M14.5284 5C14.5097 4.9193 14.4903 4.83842 14.47 4.75746C14.206 3.70138 13.7903 2.55383 13.1124 1.65C12.4134 0.71802 11.3928 0 9.99994 0C8.60704 0 7.58642 0.71802 6.88743 1.65C6.20956 2.55383 5.79381 3.70138 5.52979 4.75747C5.50955 4.83842 5.4901 4.9193 5.47139 5H3.87104C2.29165 5 0.982752 6.22455 0.877692 7.80044L0.144352 18.8004C0.0289224 20.532 1.40232 22 3.13771 22H16.8621C18.5975 22 19.9709 20.532 19.8555 18.8004L19.1221 7.80044C19.0171 6.22455 17.7082 5 16.1288 5H14.5284ZM5.47139 13.5C6.04437 13.5 6.998 9.5684 6.99995 8.99817C7.0001 8.97438 7.00038 8.9506 7.00078 8.92682C7.00166 8.87413 7.00345 8.79455 7.00712 8.69194C7.01445 8.48652 7.02924 8.18999 7.05899 7.83304C7.08009 7.57976 7.10852 7.29862 7.14668 7H12.8532C12.8913 7.29862 12.9197 7.57976 12.9409 7.83305C12.9706 8.18999 12.9854 8.48652 12.9927 8.69194C12.9964 8.79455 12.9982 8.87413 12.9991 8.92682C12.9995 8.95134 12.9998 8.97587 12.9999 9.0004C12.9999 9.0004 13.47 13.5 14.47 13.5C15.47 13.5 14.9999 8.99866 14.9999 8.99866C14.9998 8.9636 14.9994 8.92854 14.9988 8.89349C14.9977 8.829 14.9956 8.7367 14.9914 8.62056C14.9832 8.38848 14.9667 8.06001 14.9339 7.66695C14.9169 7.46202 14.8952 7.23812 14.8678 7H16.1288C16.6553 7 17.0916 7.40818 17.1266 7.93348L17.8599 18.9335C17.8984 19.5107 17.4406 20 16.8621 20H3.13771C2.55925 20 2.10145 19.5107 2.13992 18.9335L2.87326 7.93348C2.90828 7.40818 3.34458 7 3.87104 7H5.13202C5.10459 7.23812 5.08297 7.46202 5.06589 7.66696C5.03314 8.06001 5.01668 8.38848 5.00839 8.62056C5.00424 8.7367 5.00213 8.829 5.00106 8.89349C5.00048 8.92785 5.00005 8.96221 4.99994 8.99658C4.99918 9.5672 4.89972 13.5 5.47139 13.5ZM7.53346 5H12.4664C12.2352 4.15322 11.9209 3.39466 11.5124 2.85C11.0864 2.28198 10.607 2 9.99994 2C9.39284 2 8.91344 2.28198 8.48744 2.85C8.07894 3.39466 7.76466 4.15322 7.53346 5Z" fill="#0F0F0F"/>
</svg>
